<?xml version="1.0" encoding="UTF-8"?>
<!DOCTYPE svg PUBLIC "-//W3C//DTD SVG 1.1//EN" "http://www.w3.org/Graphics/SVG/1.1/DTD/svg11.dtd">
<svg xmlns="http://www.w3.org/2000/svg" version="1.1" width="138px" height="27px" style="shape-rendering:geometricPrecision; text-rendering:geometricPrecision; image-rendering:optimizeQuality; fill-rule:evenodd; clip-rule:evenodd" xmlns:xlink="http://www.w3.org/1999/xlink">
<g><path style="opacity:0.835" fill="#4a6cf6" d="M 1.5,0.5 C 7.36743,0.0671239 12.5341,1.73379 17,5.5C 21.4659,1.73379 26.6326,0.0671239 32.5,0.5C 32.5,8.83333 32.5,17.1667 32.5,25.5C 22.1667,25.5 11.8333,25.5 1.5,25.5C 1.5,17.1667 1.5,8.83333 1.5,0.5 Z"/></g>
<g><path style="opacity:1" fill="#090d34" d="M 36.5,3.5 C 42.5,3.5 48.5,3.5 54.5,3.5C 54.5,5.5 54.5,7.5 54.5,9.5C 52.549,9.77328 51.049,9.10661 50,7.5C 49.4117,12.5276 49.5784,17.5276 50.5,22.5C 47.1667,22.5 43.8333,22.5 40.5,22.5C 41.336,19.4079 42.0027,16.2413 42.5,13C 42.1667,11.1667 41.8333,9.33333 41.5,7.5C 40.1585,9.00488 38.4918,9.67154 36.5,9.5C 36.5,7.5 36.5,5.5 36.5,3.5 Z"/></g>
<g><path style="opacity:1" fill="#090d34" d="M 82.5,9.5 C 84.3545,10.6896 86.1879,12.0229 88,13.5C 89.1574,17.3458 87.9907,20.1792 84.5,22C 74.9025,22.0224 65.2359,22.189 55.5,22.5C 56.336,19.4079 57.0027,16.2413 57.5,13C 57.0027,9.75874 56.336,6.59207 55.5,3.5C 61.1667,3.5 66.8333,3.5 72.5,3.5C 72.3433,4.87344 72.51,6.20677 73,7.5C 73.5,5.66667 74.6667,4.5 76.5,4C 79.5,3.33333 82.5,3.33333 85.5,4C 87.1922,5.40072 87.8588,7.23405 87.5,9.5C 85.8333,9.5 84.1667,9.5 82.5,9.5 Z M 66.5,11.5 C 65.5,11.5 64.5,11.5 63.5,11.5C 63.5,10.1667 63.5,8.83333 63.5,7.5C 64.5,7.5 65.5,7.5 66.5,7.5C 66.5,8.83333 66.5,10.1667 66.5,11.5 Z M 82.5,9.5 C 80.663,9.36055 80.3296,8.69388 81.5,7.5C 82.2975,7.95689 82.6309,8.62356 82.5,9.5 Z M 66.5,11.5 C 68.924,11.1924 71.2573,11.5258 73.5,12.5C 75.7723,14.6511 78.439,16.1511 81.5,17C 80.9747,17.6924 80.3081,18.1924 79.5,18.5C 75.487,16.1626 71.1536,14.8292 66.5,14.5C 66.5,13.5 66.5,12.5 66.5,11.5 Z M 66.5,14.5 C 66.5,15.8333 66.5,17.1667 66.5,18.5C 65.5,18.5 64.5,18.5 63.5,18.5C 63.5,17.1667 63.5,15.8333 63.5,14.5C 64.5,14.5 65.5,14.5 66.5,14.5 Z"/></g>
<g><path style="opacity:1" fill="#090d34" d="M 88.5,3.5 C 94.5,3.5 100.5,3.5 106.5,3.5C 106.5,5.5 106.5,7.5 106.5,9.5C 104.549,9.77328 103.049,9.10661 102,7.5C 101.412,12.5276 101.578,17.5276 102.5,22.5C 99.1667,22.5 95.8333,22.5 92.5,22.5C 93.336,19.4079 94.0027,16.2413 94.5,13C 94.1667,11.1667 93.8333,9.33333 93.5,7.5C 92.1585,9.00488 90.4918,9.67154 88.5,9.5C 88.5,7.5 88.5,5.5 88.5,3.5 Z"/></g>
</svg>
